<svg xmlns="http://www.w3.org/2000/svg" width="1283" height="477" viewBox="0 0 1283 477">
  <g id="Grupo_4" data-name="Grupo 4" transform="translate(11019 9883)">
    <rect id="Rectángulo_33786" data-name="Rectángulo 33786" width="1283" height="477" transform="translate(-11019 -9883)" fill="#fdf4dc"/>
    <g id="Grupo_3" data-name="Grupo 3" transform="translate(47 -56)">
      <path id="Sustracción_1" data-name="Sustracción 1" d="M28.5,57a28.367,28.367,0,0,1-15.935-4.867A28.583,28.583,0,0,1,2.24,39.594,28.463,28.463,0,0,1,4.867,12.565,28.583,28.583,0,0,1,17.407,2.24,28.463,28.463,0,0,1,44.435,4.867,28.583,28.583,0,0,1,54.761,17.407a28.463,28.463,0,0,1-2.628,27.028A28.583,28.583,0,0,1,39.594,54.761,28.322,28.322,0,0,1,28.5,57Zm0-52.554h0L4.851,29.734H18.365V52.957h20.79V29.734H52.149L28.5,4.447Z" transform="translate(-10587 -9674) rotate(90)" fill="#fda729"/>
      <path id="Sustracción_2" data-name="Sustracción 2" d="M28.5,57a28.367,28.367,0,0,1-15.935-4.867A28.583,28.583,0,0,1,2.24,39.594,28.463,28.463,0,0,1,4.867,12.565,28.583,28.583,0,0,1,17.407,2.24,28.463,28.463,0,0,1,44.435,4.867,28.583,28.583,0,0,1,54.761,17.407a28.463,28.463,0,0,1-2.628,27.028A28.583,28.583,0,0,1,39.594,54.761,28.322,28.322,0,0,1,28.5,57Zm0-52.554h0L4.851,29.734H18.365V52.957h20.79V29.734H52.149L28.5,4.447Z" transform="translate(-10208 -9674) rotate(90)" fill="#fda729"/>
      <rect id="Rectángulo_33779" data-name="Rectángulo 33779" width="267" height="154" rx="14" transform="translate(-10560 -9715)" fill="#199be5"/>
      <rect id="Rectángulo_33780" data-name="Rectángulo 33780" width="267" height="154" rx="14" transform="translate(-10182 -9715)" fill="#1565c0"/>
      <text id="Salidas" transform="translate(-10101 -9627)" fill="#12263f" font-size="32" font-family="Roboto-Black, Roboto" font-weight="800"><tspan x="0" y="0">Salidas</tspan></text>
      <text id="Herramientas_y_Técnicas" data-name="Herramientas y
Técnicas" transform="translate(-10427 -9644)" fill="#12263f" font-size="32" font-family="Roboto-Black, Roboto" font-weight="800"><tspan x="-109.469" y="0">Herramientas y</tspan><tspan x="-63.07" y="35">Técnicas</tspan></text>
      <rect id="Rectángulo_33778" data-name="Rectángulo 33778" width="267" height="154" rx="14" transform="translate(-10951 -9715)" fill="#4dd0e1"/>
      <g id="Rectángulo_33781" data-name="Rectángulo 33781" transform="translate(-10996 -9581)" fill="#fff" stroke="#fda729" stroke-width="2">
        <rect width="358" height="154" rx="14" stroke="none"/>
        <rect x="1" y="1" width="356" height="152" rx="13" fill="none"/>
      </g>
      <g id="Rectángulo_33782" data-name="Rectángulo 33782" transform="translate(-10551 -9575)" fill="#fff" stroke="#fda729" stroke-width="2">
        <rect width="277" height="107" rx="14" stroke="none"/>
        <rect x="1" y="1" width="275" height="105" rx="13" fill="none"/>
      </g>
      <g id="Rectángulo_33783" data-name="Rectángulo 33783" transform="translate(-10170 -9575)" fill="#fff" stroke="#fda729" stroke-width="2">
        <rect width="317" height="107" rx="14" stroke="none"/>
        <rect x="1" y="1" width="315" height="105" rx="13" fill="none"/>
      </g>
      <text id="Acta_de_constitución_del_proyecto._Documentos_de_adquisición._Factores_ambientales_de_la_organización._Activos_de_los_procesos_de_la_organización." data-name="Acta de constitución del proyecto.
Documentos de adquisición.
Factores ambientales de la organización.
Activos de los procesos de la organización." transform="translate(-10963 -9532)" fill="#12263f" font-size="16" font-family="Roboto-Regular, Roboto"><tspan x="0" y="0">Acta de constitución del proyecto.</tspan><tspan x="0" y="24">Documentos de adquisición.</tspan><tspan x="0" y="48">Factores ambientales de la organización.</tspan><tspan x="0" y="72">Activos de los procesos de la organización.</tspan></text>
      <text id="Análisis_de_los_interesados._Juicio_de_expertos." data-name="Análisis de los interesados.
Juicio de expertos." transform="translate(-10520 -9528)" fill="#12263f" font-size="16" font-family="Roboto-Regular, Roboto"><tspan x="0" y="0">Análisis de los interesados.</tspan><tspan x="0" y="24">Juicio de expertos.</tspan></text>
      <text id="Matriz_de_stakeholders_registro_y_estrategias_de_gestión_." data-name="Matriz de stakeholders 
(registro y estrategias de gestión)." transform="translate(-10133 -9528)" fill="#12263f" font-size="16" font-family="Roboto-Regular, Roboto"><tspan x="0" y="0">Matriz de </tspan><tspan y="0" font-family="Roboto-Italic, Roboto" font-style="italic">stakeholders </tspan><tspan x="0" y="24">(registro y estrategias de gestión).</tspan></text>
      <text id="Entrada" transform="translate(-10872 -9627)" fill="#12263f" font-size="32" font-family="Roboto-Black, Roboto" font-weight="800"><tspan x="0" y="0">Entrada</tspan></text>
      <path id="Trazado_2_-_Contorno" data-name="Trazado 2 - Contorno" d="M-4.118-19.624a.987.987,0,0,1,.581.2l.027.02,5.666,4.583a.944.944,0,0,1,.36.769,1.01,1.01,0,0,1-.31.724l-.021.021-5.69,4.6a.944.944,0,0,1-.717.217.945.945,0,0,1-.662-.371.936.936,0,0,1-.211-.71.974.974,0,0,1,.339-.649l.012-.01,4.716-3.825L-4.756-17.89a.974.974,0,0,1-.339-.65,1,1,0,0,1,.2-.714l.024-.032.028-.028A1.01,1.01,0,0,1-4.118-19.624Z" transform="translate(-10968.453 -9523.079)" fill="#ee9d27"/>
      <path id="Trazado_2_-_Contorno-2" data-name="Trazado 2 - Contorno" d="M-4.118-19.624a.987.987,0,0,1,.581.2l.027.02,5.666,4.583a.944.944,0,0,1,.36.769,1.01,1.01,0,0,1-.31.724l-.021.021-5.69,4.6a.944.944,0,0,1-.717.217.945.945,0,0,1-.662-.371.936.936,0,0,1-.211-.71.974.974,0,0,1,.339-.649l.012-.01,4.716-3.825L-4.756-17.89a.974.974,0,0,1-.339-.65,1,1,0,0,1,.2-.714l.024-.032.028-.028A1.01,1.01,0,0,1-4.118-19.624Z" transform="translate(-10968.453 -9499.079)" fill="#ee9d27"/>
      <path id="Trazado_2_-_Contorno-3" data-name="Trazado 2 - Contorno" d="M-4.118-19.624a.987.987,0,0,1,.581.2l.027.02,5.666,4.583a.944.944,0,0,1,.36.769,1.01,1.01,0,0,1-.31.724l-.021.021-5.69,4.6a.944.944,0,0,1-.717.217.945.945,0,0,1-.662-.371.936.936,0,0,1-.211-.71.974.974,0,0,1,.339-.649l.012-.01,4.716-3.825L-4.756-17.89a.974.974,0,0,1-.339-.65,1,1,0,0,1,.2-.714l.024-.032.028-.028A1.01,1.01,0,0,1-4.118-19.624Z" transform="translate(-10968.453 -9477.079)" fill="#ee9d27"/>
      <path id="Trazado_2_-_Contorno-4" data-name="Trazado 2 - Contorno" d="M-4.118-19.624a.987.987,0,0,1,.581.2l.027.02,5.666,4.583a.944.944,0,0,1,.36.769,1.01,1.01,0,0,1-.31.724l-.021.021-5.69,4.6a.944.944,0,0,1-.717.217.945.945,0,0,1-.662-.371.936.936,0,0,1-.211-.71.974.974,0,0,1,.339-.649l.012-.01,4.716-3.825L-4.756-17.89a.974.974,0,0,1-.339-.65,1,1,0,0,1,.2-.714l.024-.032.028-.028A1.01,1.01,0,0,1-4.118-19.624Z" transform="translate(-10968.453 -9453.079)" fill="#ee9d27"/>
      <path id="Trazado_2_-_Contorno-5" data-name="Trazado 2 - Contorno" d="M-4.118-19.624a.987.987,0,0,1,.581.2l.027.02,5.666,4.583a.944.944,0,0,1,.36.769,1.01,1.01,0,0,1-.31.724l-.021.021-5.69,4.6a.944.944,0,0,1-.717.217.945.945,0,0,1-.662-.371.936.936,0,0,1-.211-.71.974.974,0,0,1,.339-.649l.012-.01,4.716-3.825L-4.756-17.89a.974.974,0,0,1-.339-.65,1,1,0,0,1,.2-.714l.024-.032.028-.028A1.01,1.01,0,0,1-4.118-19.624Z" transform="translate(-10529.453 -9520.079)" fill="#ee9d27"/>
      <path id="Trazado_2_-_Contorno-6" data-name="Trazado 2 - Contorno" d="M-4.118-19.624a.987.987,0,0,1,.581.2l.027.02,5.666,4.583a.944.944,0,0,1,.36.769,1.01,1.01,0,0,1-.31.724l-.021.021-5.69,4.6a.944.944,0,0,1-.717.217.945.945,0,0,1-.662-.371.936.936,0,0,1-.211-.71.974.974,0,0,1,.339-.649l.012-.01,4.716-3.825L-4.756-17.89a.974.974,0,0,1-.339-.65,1,1,0,0,1,.2-.714l.024-.032.028-.028A1.01,1.01,0,0,1-4.118-19.624Z" transform="translate(-10529.453 -9495.515)" fill="#ee9d27"/>
      <path id="Trazado_2_-_Contorno-7" data-name="Trazado 2 - Contorno" d="M-4.118-19.624a.987.987,0,0,1,.581.2l.027.02,5.666,4.583a.944.944,0,0,1,.36.769,1.01,1.01,0,0,1-.31.724l-.021.021-5.69,4.6a.944.944,0,0,1-.717.217.945.945,0,0,1-.662-.371.936.936,0,0,1-.211-.71.974.974,0,0,1,.339-.649l.012-.01,4.716-3.825L-4.756-17.89a.974.974,0,0,1-.339-.65,1,1,0,0,1,.2-.714l.024-.032.028-.028A1.01,1.01,0,0,1-4.118-19.624Z" transform="translate(-10142.707 -9519.515)" fill="#ee9d27"/>
    </g>
  </g>
</svg>
